<svg data-v-423bf9ae="" xmlns="http://www.w3.org/2000/svg" viewBox="0 0 310.13304585796914 163" class="iconAbove"><!----><!----><!----><g data-v-423bf9ae="" id="2784d79a-687d-4b23-848b-d170543109fa" fill="white" transform="matrix(6.1412484328310715,0,0,6.1412484328310715,-6.448308269748651,86.48004470213948)"><path d="M1.05 12.29L1.05 2.69L2.60 2.69L2.60 7.78L7.49 2.69L9.38 2.69L5.70 6.55L9.49 12.29L7.66 12.29L4.65 7.64L2.60 9.49L2.60 12.29L1.05 12.29ZM13.62 12.46Q11.84 12.46 10.98 11.52Q10.11 10.58 10.11 8.61L10.11 8.61Q10.11 6.64 10.98 5.70Q11.84 4.76 13.62 4.76L13.62 4.76Q15.23 4.76 16.03 5.63Q16.83 6.51 16.83 8.41L16.83 8.41L16.83 8.97L11.59 8.97Q11.65 10.16 12.13 10.73Q12.61 11.30 13.64 11.30L13.64 11.30Q14.43 11.30 14.92 10.92Q15.41 10.54 15.41 9.76L15.41 9.76L16.83 9.76Q16.83 11.07 15.94 11.77Q15.05 12.46 13.62 12.46L13.62 12.46ZM11.62 7.88L15.33 7.88Q15.33 5.92 13.62 5.92L13.62 5.92Q12.67 5.92 12.19 6.39Q11.72 6.86 11.62 7.88L11.62 7.88ZM21.41 12.46Q19.63 12.46 18.76 11.52Q17.89 10.58 17.89 8.61L17.89 8.61Q17.89 6.64 18.76 5.70Q19.63 4.76 21.41 4.76L21.41 4.76Q23.02 4.76 23.81 5.63Q24.61 6.51 24.61 8.41L24.61 8.41L24.61 8.97L19.38 8.97Q19.43 10.16 19.91 10.73Q20.40 11.30 21.42 11.30L21.42 11.30Q22.22 11.30 22.71 10.92Q23.20 10.54 23.20 9.76L23.20 9.76L24.61 9.76Q24.61 11.07 23.72 11.77Q22.83 12.46 21.41 12.46L21.41 12.46ZM19.40 7.88L23.11 7.88Q23.11 5.92 21.41 5.92L21.41 5.92Q20.45 5.92 19.98 6.39Q19.50 6.86 19.40 7.88L19.40 7.88ZM25.47 12.29L25.47 11.58L29.50 6.12L25.73 6.12L25.73 4.93L31.60 4.93L31.60 5.63L27.57 11.10L31.81 11.10L31.81 12.29L25.47 12.29ZM35 12.46Q34.09 12.46 33.35 12.01Q32.62 11.56 32.62 10.39L32.62 10.39Q32.62 8.97 33.85 8.43Q35.08 7.88 37.38 7.88L37.38 7.88L37.38 7.15Q37.38 6.55 37.06 6.24Q36.75 5.92 35.90 5.92L35.90 5.92Q35.07 5.92 34.73 6.22Q34.38 6.51 34.38 6.93L34.38 6.93L34.38 7.11L32.98 7.11Q32.97 7.03 32.97 6.80L32.97 6.80Q32.97 5.84 33.78 5.30Q34.59 4.76 35.95 4.76L35.95 4.76Q37.38 4.76 38.10 5.35Q38.82 5.94 38.82 7.01L38.82 7.01L38.82 10.78Q38.82 11.03 38.96 11.15Q39.10 11.27 39.31 11.27L39.31 11.27L39.82 11.27L39.82 12.24Q39.45 12.42 38.82 12.42L38.82 12.42Q38.32 12.42 37.98 12.14Q37.63 11.87 37.52 11.40L37.52 11.40L37.42 11.40Q37.03 11.90 36.42 12.18Q35.81 12.46 35 12.46L35 12.46ZM35.42 11.28Q36.25 11.28 36.81 10.79Q37.38 10.29 37.38 9.42L37.38 9.42L37.38 8.97Q35.78 8.97 34.94 9.25Q34.10 9.52 34.10 10.28L34.10 10.28Q34.10 10.79 34.43 11.04Q34.76 11.28 35.42 11.28L35.42 11.28ZM40.88 12.29L40.88 4.93L42.04 4.93L42.18 6.06L42.27 6.06Q42.77 4.76 43.96 4.76L43.96 4.76Q44.21 4.76 44.40 4.81Q44.59 4.86 44.65 4.87L44.65 4.87L44.65 6.24L44.13 6.24Q43.30 6.24 42.81 6.72Q42.32 7.20 42.32 8.18L42.32 8.18L42.32 12.29L40.88 12.29ZM48.43 12.46Q46.91 12.46 46.12 11.83Q45.33 11.20 45.33 10.25L45.33 10.25Q45.33 10.09 45.34 10.04Q45.35 10.00 45.35 9.98L45.35 9.98L46.76 9.98L46.76 10.11Q46.76 10.71 47.25 11.01Q47.74 11.31 48.50 11.31L48.50 11.31Q49.17 11.31 49.62 11.06Q50.08 10.81 50.08 10.35L50.08 10.35Q50.08 9.98 49.83 9.75Q49.57 9.52 49.21 9.39Q48.85 9.25 48.16 9.07L48.16 9.07Q47.32 8.86 46.79 8.65Q46.26 8.44 45.88 8.02Q45.51 7.60 45.51 6.90L45.51 6.90Q45.51 5.89 46.34 5.33Q47.17 4.76 48.54 4.76L48.54 4.76Q49.39 4.76 50.03 5.02Q50.67 5.28 51.01 5.74Q51.35 6.20 51.35 6.78L51.35 6.78L51.34 7.06L49.92 7.06L49.92 6.96Q49.92 6.50 49.55 6.21Q49.18 5.92 48.41 5.92L48.41 5.92Q47.67 5.92 47.33 6.18Q46.98 6.44 46.98 6.79L46.98 6.79Q46.98 7.22 47.40 7.43Q47.82 7.64 48.73 7.85L48.73 7.85Q49.62 8.06 50.18 8.28Q50.74 8.50 51.14 8.95Q51.55 9.41 51.55 10.16L51.55 10.16Q51.55 11.34 50.70 11.90Q49.85 12.46 48.43 12.46L48.43 12.46Z"></path></g><!----><g data-v-423bf9ae="" id="7e6bbdd0-6e0d-4338-a340-ac26c8d3ac52" transform="matrix(2.8125,0,0,2.8125,111,0)" stroke="none" fill="white"><path d="M0 16.024L15.976 32 32 15.976 16.024 0 0 16.024zm15.989 7.323l-7.336-7.336 14.694-.022-7.358 7.358z"></path></g><!----></svg>